# xmcd
#
# Track frame offsets: 
#        150
#        22400
#        49484
#        70526
#        82206
#        95020
#        112602
#        115607
#        126404
#        135132
#        145531
#        155863
#        165379
#        183991
#        187452
#        217815
#        227824
#
# Disc length: 3528 seconds
#
# Revision: 1
# Processed by: cddbd v1.5.2PL0 Copyright (c) Steve Scherf et al.
# Submitted via: ExactAudioCopyFreeDBPlugin 1.0
#
DISCID=ef0dc611
DTITLE=Violões de Porto e Ana Medeiros - Carmen e os violões - Ao vivo
DYEAR=2019
DGENRE=Folklore
TTITLE0=Danza Ritual Del Fuego - Manuel de Falla - arranjo: Thiago Kre
TTITLE0=utz
TTITLE1=Introduction et Fandango - Luigi Boccherini - arranjo: Jeremy 
TTITLE1=Sparks
TTITLE2=Batuque - Ernesto Nazareth - arranjo:  Eustáquio Grilo
TTITLE3=Ó, Abre-Alas - Chiquinha Gonzaga - arranjo: Marcel Estivalet
TTITLE4=Lua Branca - Chiquinha Gonzaga - arranjo: Marcel Estivalet
TTITLE5=Cadenza - Ana Medeiros - Ó, Abre Alas - Chiquinha Gonzaga
TTITLE6=Marcel Estivalet - Poema - Marcel Estivalet
TTITLE7=Carmen Suite  Toreadors - Georges Bizet - arranjo: William Kan
TTITLE7=engiser
TTITLE8=Carmen Suite - Seguidilla - Georges Bizet - arranjo: William K
TTITLE8=anengiser
TTITLE9=Carmen Suite - Aragonaise - Georges Bizet - arranjo: William K
TTITLE9=anengiser
TTITLE10=Carmen Suite - Entr'Acte - Georges  Bizet - arranjo: William 
TTITLE10=Kanengiser
TTITLE11=Carmen Suite - Habanera - Georges Bizet - arranjo: William Ka
TTITLE11=nengiser
TTITLE12=Carmen Suite - Gipsy Dance - Georges Bizet - arranjo: William
TTITLE12=Kanengiser
TTITLE13=Thiago Kreutz - Homenagem - Thiago Kreutz
TTITLE14=Abismo de Rosas - Américo Jacomino - arranjo: Thiago Kreutz
TTITLE15=Gaúcho (Corta Jaca) - Chiquinha Gonzaga - arranjo: Bruno Duar
TTITLE15=te
TTITLE16=Tico-tico no Fubá - Zequinha de Abreu - Touradas em Madrid - 
TTITLE16=João de Barro e Alberto Ribeiro - arranjo: Thiago Kreutz e Lu
TTITLE16=cas Araújo
EXTD=
EXTT0=
EXTT1=
EXTT2=
EXTT3=
EXTT4=
EXTT5=
EXTT6=
EXTT7=
EXTT8=
EXTT9=
EXTT10=
EXTT11=
EXTT12=
EXTT13=
EXTT14=
EXTT15=
EXTT16=
PLAYORDER=
